<svg width="48" height="48" viewBox="0 0 163 109" fill="none" xmlns="http://www.w3.org/2000/svg"><path fill-rule="evenodd" clip-rule="evenodd" d="M0 107.003V0h49.509C65.41 0 78.302 12.88 78.302 28.769c0 10.096-3.107 16.35-14.5 22.766 13.634 6.207 17.42 14.809 17.42 26.808 0 16.231-14.432 28.66-30.678 28.66H0zm20.95-89.29v25.73h24.52s11.917 0 11.917-12.865c0-12.866-11.917-12.866-11.917-12.866H20.95zm0 71.168V61.098h26.3c4.247 0 13.15 2.19 13.15 15.329 0 9.744-8.766 12.363-13.15 12.454h-26.3zM126.015 29.483c-15.068 0-37.396 10.812-37.396 39.553 0 17.5 9.589 39.964 38.355 39.964 23.013 0 33.606-16.88 36.026-25.32h-21.643c-1.096 3.832-5.342 8.075-14.383 8.075-13.15 0-17.808-11.222-18.493-16.834H163v-5.885c0-28.741-21.917-39.553-36.985-39.553zm0 16.423c-12.274 0-16.803 10.128-17.534 15.192h32.876c0-5.064-3.069-15.192-15.342-15.192z" fill="#000"/><path d="M99.851 6.08v13.275h51.643V6.079H99.851z" fill="#000"/></svg>