<svg width="48" height="48" viewBox="0 0 109 109" fill="none" xmlns="http://www.w3.org/2000/svg"><path d="M92.65 24.525a8.175 8.175 0 11-16.35 0 8.175 8.175 0 0116.35 0z" fill="#000"/><path fill-rule="evenodd" clip-rule="evenodd" d="M54.5 81.75c15.05 0 27.25-12.2 27.25-27.25S69.55 27.25 54.5 27.25 27.25 39.45 27.25 54.5s12.2 27.25 27.25 27.25zm0-10.9c9.03 0 16.35-7.32 16.35-16.35 0-9.03-7.32-16.35-16.35-16.35-9.03 0-16.35 7.32-16.35 16.35 0 9.03 7.32 16.35 16.35 16.35z" fill="#000"/><path fill-rule="evenodd" clip-rule="evenodd" d="M0 52.32c0-18.314 0-27.47 3.564-34.465a32.7 32.7 0 0114.29-14.29C24.85 0 34.007 0 52.32 0h4.36c18.314 0 27.47 0 34.465 3.564a32.7 32.7 0 0114.291 14.29C109 24.85 109 34.007 109 52.32v4.36c0 18.314 0 27.47-3.564 34.465a32.7 32.7 0 01-14.29 14.291C84.15 109 74.993 109 56.68 109h-4.36c-18.314 0-27.47 0-34.465-3.564a32.7 32.7 0 01-14.29-14.29C0 84.15 0 74.993 0 56.68v-4.36zM52.32 10.9h4.36c9.337 0 15.684.008 20.59.41 4.778.39 7.222 1.097 8.927 1.966a21.8 21.8 0 019.527 9.527c.869 1.705 1.576 4.149 1.967 8.927.4 4.906.409 11.253.409 20.59v4.36c0 9.337-.008 15.684-.41 20.59-.39 4.778-1.097 7.222-1.966 8.927a21.8 21.8 0 01-9.527 9.527c-1.705.869-4.149 1.576-8.927 1.967-4.906.4-11.253.409-20.59.409h-4.36c-9.337 0-15.684-.008-20.59-.41-4.778-.39-7.222-1.097-8.927-1.966a21.8 21.8 0 01-9.527-9.527c-.869-1.705-1.576-4.149-1.967-8.927-.4-4.906-.409-11.253-.409-20.59v-4.36c0-9.337.008-15.684.41-20.59.39-4.778 1.097-7.222 1.966-8.927a21.8 21.8 0 019.527-9.527c1.705-.869 4.149-1.576 8.927-1.967 4.906-.4 11.253-.409 20.59-.409z" fill="#000"/></svg>