<svg width="48" height="48" viewBox="0 0 117 109" fill="none" xmlns="http://www.w3.org/2000/svg"><path d="M28.225 13.175c0 7.276-6.319 13.174-14.113 13.174S0 20.451 0 13.175C0 5.898 6.318 0 14.112 0c7.794 0 14.113 5.898 14.113 13.175zM1.93 36.033h24.124V109H1.93V36.033zM64.893 36.033H40.769V109h24.124V71.666c0-8.62 2.949-17.279 14.715-17.279 13.298 0 13.218 11.282 13.156 20.022-.081 11.424.112 23.083.112 34.591H117V70.49c-.204-24.59-6.624-35.92-27.742-35.92-12.542 0-20.316 5.683-24.365 10.825v-9.362z" fill="#000"/></svg>