<svg width="56" height="70" fill="none" xmlns="http://www.w3.org/2000/svg"><g clip-path="url(#a)"><path d="M18.177 59.622c-3.185-2.89-4.115-8.965-2.788-13.365 2.3 2.774 5.488 3.653 8.79 4.15 5.098.765 10.104.479 14.839-1.835.541-.265 1.042-.617 1.634-.974.444 1.28.56 2.572.405 3.888-.378 3.203-1.983 5.677-4.536 7.553-1.021.75-2.102 1.42-3.156 2.128-3.24 2.174-4.116 4.723-2.899 8.431.03.091.055.182.12.402-1.653-.735-2.861-1.806-3.782-3.213-.972-1.485-1.435-3.128-1.46-4.905-.011-.865-.011-1.738-.129-2.59-.286-2.08-1.269-3.01-3.12-3.064-1.9-.056-3.404 1.111-3.803 2.948-.03.141-.074.28-.118.444l.003.002z" fill="#fff"/><path d="M18.177 59.622c-3.185-2.89-4.115-8.965-2.788-13.365 2.3 2.774 5.488 3.653 8.79 4.15 5.098.765 10.104.479 14.839-1.835.541-.265 1.042-.617 1.634-.974.444 1.28.56 2.572.405 3.888-.378 3.203-1.983 5.677-4.536 7.553-1.021.75-2.102 1.42-3.156 2.128-3.24 2.174-4.116 4.723-2.899 8.431.03.091.055.182.12.402-1.653-.735-2.861-1.806-3.782-3.213-.972-1.485-1.435-3.128-1.46-4.905-.011-.865-.011-1.738-.129-2.59-.286-2.08-1.269-3.01-3.12-3.064-1.9-.056-3.404 1.111-3.803 2.948-.03.141-.074.28-.118.444l.003.002z" fill="url(#b)"/><path d="M0 45.524s9.43-4.562 18.887-4.562l7.13-21.911c.267-1.06 1.046-1.78 1.926-1.78.88 0 1.66.72 1.926 1.78L37 40.962c11.2 0 18.887 4.562 18.887 4.562S39.868 2.194 39.837 2.106C39.377.826 38.601 0 37.555 0H18.333c-1.046 0-1.79.825-2.282 2.106C16.017 2.191 0 45.524 0 45.524z" fill="#fff"/></g><defs><linearGradient id="b" x1="14.804" y1="70" x2="45.475" y2="55.406" gradientUnits="userSpaceOnUse"><stop stop-color="#D83333"/><stop offset="1" stop-color="#F041FF"/></linearGradient><clipPath id="a"><path fill="#fff" d="M0 0H56V70H0z"/></clipPath></defs></svg>