<svg width="70" height="43" fill="none" xmlns="http://www.w3.org/2000/svg"><g clip-path="url(#a)"><mask id="b" style="mask-type:luminance" maskUnits="userSpaceOnUse" x="0" y="0" width="70" height="43"><path d="M0 0h70v42.218H0V0z" fill="#fff"/></mask><g mask="url(#b)"><path fill-rule="evenodd" clip-rule="evenodd" d="M35 0c-9.333 0-15.167 4.69-17.5 14.073 3.5-4.691 7.583-6.45 12.25-5.278 2.663.669 4.566 2.612 6.672 4.76 3.431 3.502 7.403 7.554 16.078 7.554 9.333 0 15.167-4.69 17.5-14.073-3.5 4.691-7.583 6.45-12.25 5.278-2.663-.669-4.566-2.612-6.672-4.76C47.647 4.052 43.675 0 35 0zM17.5 21.11C8.167 21.11 2.333 25.8 0 35.181c3.5-4.691 7.583-6.45 12.25-5.278 2.663.67 4.566 2.612 6.672 4.76 3.431 3.502 7.403 7.554 16.078 7.554 9.333 0 15.167-4.69 17.5-14.073-3.5 4.691-7.583 6.45-12.25 5.278-2.663-.669-4.566-2.612-6.672-4.76-3.431-3.502-7.403-7.554-16.078-7.554z" fill="#38BDF8"/></g></g><defs><clipPath id="a"><path fill="#fff" d="M0 0H70V43H0z"/></clipPath></defs></svg>