<svg width="62" height="62" fill="none" xmlns="http://www.w3.org/2000/svg"><rect width="62" height="62" rx="15" fill="#000"/><path fill-rule="evenodd" clip-rule="evenodd" d="M30.608 31c0-3.452 2.808-6.25 6.27-6.25 3.463 0 6.27 2.798 6.27 6.25s-2.807 6.25-6.27 6.25c-3.462 0-6.27-2.798-6.27-6.25z" fill="#1ABCFE"/><path fill-rule="evenodd" clip-rule="evenodd" d="M18.068 43.5c0-3.452 2.807-6.25 6.27-6.25h6.27v6.25c0 3.452-2.807 6.25-6.27 6.25-3.463 0-6.27-2.798-6.27-6.25z" fill="#0ACF83"/><path fill-rule="evenodd" clip-rule="evenodd" d="M30.608 12.25v12.5h6.27c3.463 0 6.27-2.798 6.27-6.25s-2.807-6.25-6.27-6.25h-6.27z" fill="#FF7262"/><path fill-rule="evenodd" clip-rule="evenodd" d="M18.068 18.5c0 3.452 2.807 6.25 6.27 6.25h6.27v-12.5h-6.27c-3.463 0-6.27 2.798-6.27 6.25z" fill="#F24E1E"/><path fill-rule="evenodd" clip-rule="evenodd" d="M18.068 31c0 3.452 2.807 6.25 6.27 6.25h6.27v-12.5h-6.27c-3.463 0-6.27 2.798-6.27 6.25z" fill="#A259FF"/></svg>