<svg width="70" height="70" fill="none" xmlns="http://www.w3.org/2000/svg"><path d="M4.375 26.542c0-7.76 0-11.639 1.51-14.603a13.854 13.854 0 016.055-6.054c2.963-1.51 6.843-1.51 14.602-1.51h16.916c7.76 0 11.639 0 14.602 1.51a13.855 13.855 0 016.055 6.055c1.51 2.963 1.51 6.843 1.51 14.602v16.916c0 7.76 0 11.639-1.51 14.602a13.855 13.855 0 01-6.054 6.055c-2.964 1.51-6.844 1.51-14.603 1.51H26.542c-7.76 0-11.639 0-14.603-1.51a13.855 13.855 0 01-6.054-6.054c-1.51-2.964-1.51-6.844-1.51-14.603V26.542z" fill="#00005B"/><path d="M17.5 47.678V20.142c0-.187.077-.294.256-.294 2.645 0 5.29-.16 7.935-.16 4.293 0 8.942 1.496 10.572 6.074.384 1.124.588 2.274.588 3.479 0 2.301-.512 4.2-1.535 5.7-2.86 4.185-7.818 4.12-12.262 4.12v8.59c.035.255-.177.375-.383.375h-4.864c-.205 0-.307-.107-.307-.348zm5.58-22.665v8.99c1.762.133 3.606.147 5.299-.427 1.869-.55 2.892-2.199 2.892-4.175.052-1.683-.848-3.299-2.38-3.907-1.673-.709-4.005-.751-5.81-.481zM40.321 26.714h4.492a.57.57 0 01.536.43c.33.765.37 1.686.37 2.511.771-.938 1.7-1.719 2.741-2.305a6.917 6.917 0 013.666-.97c.213-.031.401.166.37.389v5.213c0 .2-.137.301-.411.301-1.902-.137-4.862.333-6.243 1.896v13.554c0 .259-.11.388-.33.388h-4.82c-.237.036-.446-.187-.412-.43V32.971c0-1.972.04-4.003-.247-5.957-.045-.18.12-.347.288-.301z" fill="#99F"/></svg>