<svg width="70" height="70" fill="none" xmlns="http://www.w3.org/2000/svg"><path d="M4.375 26.542c0-7.76 0-11.639 1.51-14.603a13.854 13.854 0 016.055-6.054c2.963-1.51 6.843-1.51 14.602-1.51h16.916c7.76 0 11.639 0 14.602 1.51a13.855 13.855 0 016.055 6.055c1.51 2.963 1.51 6.843 1.51 14.602v16.916c0 7.76 0 11.639-1.51 14.602a13.855 13.855 0 01-6.054 6.055c-2.964 1.51-6.844 1.51-14.603 1.51H26.542c-7.76 0-11.639 0-14.603-1.51a13.855 13.855 0 01-6.054-6.054c-1.51-2.964-1.51-6.844-1.51-14.603V26.542z" fill="#001E36"/><path d="M17.5 49.254V22.32c0-.183.077-.288.255-.288 2.637 0 5.274-.157 7.912-.157 4.28 0 8.915 1.464 10.54 5.942.383 1.1.587 2.225.587 3.403 0 2.25-.51 4.11-1.531 5.575-2.852 4.094-7.795 4.03-12.225 4.03v8.403c.035.249-.177.367-.383.367h-4.849c-.204 0-.306-.105-.306-.34zm5.564-22.17v8.795c1.756.128 3.595.142 5.282-.42 1.864-.537 2.884-2.15 2.884-4.082.052-1.647-.845-3.228-2.373-3.822-1.668-.693-3.993-.735-5.793-.471zM52.711 34.141a9.453 9.453 0 00-2.444-.885c-1.093-.257-5.402-1.157-5.404 1.096.039 1.258 2.035 1.874 2.918 2.233 3.097 1.064 6.602 2.964 6.533 6.785.095 4.757-4.514 6.658-8.464 6.659-2.057.021-4.2-.298-6.081-1.18a.558.558 0 01-.288-.506v-4.551c-.02-.183.175-.342.329-.211 1.844 1.115 4.03 1.657 6.163 1.686.942 0 2.808-.092 2.794-1.475 0-1.328-2.233-1.939-3.123-2.276a14.965 14.965 0 01-3.636-1.896c-1.57-1.12-2.554-2.914-2.527-4.889-.01-4.479 4.233-6.489 8.053-6.49 1.786-.014 3.704.118 5.367.843.239.07.288.322.287.548v4.256c.015.265-.278.354-.477.253z" fill="#31A8FF"/></svg>