<svg width="70" height="70" fill="none" xmlns="http://www.w3.org/2000/svg"><path d="M4.375 26.542c0-7.76 0-11.639 1.51-14.603a13.854 13.854 0 016.055-6.054c2.963-1.51 6.843-1.51 14.602-1.51h16.916c7.76 0 11.639 0 14.602 1.51a13.855 13.855 0 016.055 6.055c1.51 2.963 1.51 6.843 1.51 14.602v16.916c0 7.76 0 11.639-1.51 14.602a13.855 13.855 0 01-6.054 6.055c-2.964 1.51-6.844 1.51-14.603 1.51H26.542c-7.76 0-11.639 0-14.603-1.51a13.855 13.855 0 01-6.054-6.054c-1.51-2.964-1.51-6.844-1.51-14.603V26.542z" fill="#300"/><path d="M34.056 42.867h-9.492l-1.93 6.153a.49.49 0 01-.494.379h-4.807c-.274 0-.37-.155-.288-.464l8.218-24.274c.082-.252.164-.54.246-.864a9.252 9.252 0 00.165-1.706c-.024-.17.125-.319.287-.295h6.533c.192 0 .301.07.33.21l9.326 26.971c.082.282 0 .422-.246.422h-5.342a.384.384 0 01-.41-.295l-2.096-6.237zm-8.012-5.31h6.491c-1.066-3.645-2.27-7.242-3.245-10.915-1.053 3.68-2.201 7.344-3.246 10.915zM47.697 26.263a2.914 2.914 0 01-1.227-.216 2.977 2.977 0 01-1.033-.711 3.35 3.35 0 01-.665-1.113 3.41 3.41 0 01-.198-1.29c-.015-.434.06-.867.219-1.27.16-.403.4-.767.705-1.068.303-.298.66-.532 1.052-.688.392-.155.81-.23 1.229-.218.986 0 1.76.302 2.321.906.284.314.504.682.649 1.083.144.401.21.828.194 1.255.017.441-.052.88-.204 1.294-.152.412-.383.79-.68 1.109-.31.313-.68.557-1.086.717-.407.16-.841.23-1.276.21zM44.86 48.977V28.833c0-.252.11-.379.33-.379h5.053c.22 0 .329.127.329.38v20.143c0 .282-.11.422-.329.422h-5.013c-.246 0-.37-.14-.37-.422z" fill="#FF9A00"/></svg>