<svg width="70" height="70" fill="none" xmlns="http://www.w3.org/2000/svg"><path d="M4.375 26.542c0-7.76 0-11.639 1.51-14.603a13.854 13.854 0 016.055-6.054c2.963-1.51 6.843-1.51 14.602-1.51h16.916c7.76 0 11.639 0 14.602 1.51a13.855 13.855 0 016.055 6.055c1.51 2.963 1.51 6.843 1.51 14.602v16.916c0 7.76 0 11.639-1.51 14.602a13.855 13.855 0 01-6.054 6.055c-2.964 1.51-6.844 1.51-14.603 1.51H26.542c-7.76 0-11.639 0-14.603-1.51a13.855 13.855 0 01-6.054-6.054c-1.51-2.964-1.51-6.844-1.51-14.603V26.542z" fill="#00005B"/><path d="M30.164 42.796h-9.491l-1.931 6.164a.49.49 0 01-.494.38h-4.807c-.274 0-.37-.155-.287-.464l8.217-24.173c.082-.253.165-.5.247-.824a9.253 9.253 0 00.164-1.706c-.023-.17.123-.32.288-.295h6.533c.191 0 .3.07.328.21l9.328 26.83c.082.281 0 .422-.247.422H32.67a.384.384 0 01-.41-.295l-2.096-6.25zm-8.012-5.198h6.492c-1.067-3.645-2.27-7.241-3.246-10.915-1.106 3.81-2.126 7.344-3.246 10.915zM45.196 40.416c.377 3.13 3.006 4.622 5.916 4.558 1.642-.032 3.395-.287 4.929-.907.137-.112.206-.042.206.21v4.004a.543.543 0 01-.247.506c-1.906.866-4.094 1.127-6.161 1.094-6.164 0-10.398-4.344-10.396-10.662-.016-5.989 3.869-11.04 9.902-11.04 5.115-.133 8.656 3.962 8.67 9.059 0 .928-.052 1.86-.164 2.781a.38.38 0 01-.37.337c-4.085 0-8.19.06-12.285.06zm0-3.84c2.276 0 4.566.081 6.84-.02.343-.036.597-.1.597-.456-.048-1.89-1.643-3.444-3.493-3.371-2.236-.139-3.667 1.748-3.944 3.848z" fill="#99F"/></svg>