<svg width="40" height="70" fill="none" xmlns="http://www.w3.org/2000/svg"><path fill-rule="evenodd" clip-rule="evenodd" d="M19.46 35c0-4.832 3.872-8.75 8.648-8.75 4.777 0 8.649 3.918 8.649 8.75 0 4.833-3.872 8.75-8.649 8.75-4.776 0-8.649-3.917-8.649-8.75z" fill="#1ABCFE"/><path fill-rule="evenodd" clip-rule="evenodd" d="M2.162 52.5c0-4.833 3.872-8.75 8.649-8.75h8.648v8.75c0 4.833-3.872 8.75-8.648 8.75-4.777 0-8.649-3.917-8.649-8.75z" fill="#0ACF83"/><path fill-rule="evenodd" clip-rule="evenodd" d="M19.46 8.75v17.5h8.648c4.777 0 8.649-3.918 8.649-8.75s-3.872-8.75-8.649-8.75H19.46z" fill="#FF7262"/><path fill-rule="evenodd" clip-rule="evenodd" d="M2.162 17.5c0 4.832 3.872 8.75 8.649 8.75h8.648V8.75h-8.648c-4.777 0-8.649 3.918-8.649 8.75z" fill="#F24E1E"/><path fill-rule="evenodd" clip-rule="evenodd" d="M2.162 35c0 4.833 3.872 8.75 8.649 8.75h8.648v-17.5h-8.648c-4.777 0-8.649 3.918-8.649 8.75z" fill="#A259FF"/></svg>