<svg width="70" height="70" fill="none" xmlns="http://www.w3.org/2000/svg"><path fill="#FFCA28" d="M4.375 4.375H65.625V65.625H4.375z"/><path d="M41.563 55.317l4.51-2.984c.352 1.11 2.59 3.747 5.417 3.747s4.14-1.544 4.14-2.567c0-2.79-2.887-3.773-4.273-4.246-.226-.077-.412-.14-.54-.196-.065-.028-.164-.066-.29-.114-1.542-.59-7.231-2.763-7.231-9.063 0-6.94 6.697-7.738 8.211-7.738.991 0 5.755.122 8.128 4.58L55.26 39.79c-.96-1.943-2.553-2.585-3.534-2.585-2.423 0-2.928 1.776-2.928 2.585 0 2.269 2.633 3.285 4.855 4.144.582.225 1.136.439 1.607.661 2.423 1.145 5.99 3.019 5.99 8.918 0 2.954-2.478 7.737-8.716 7.737-8.38 0-10.601-5.031-10.971-5.933zM19.688 55.91l4.7-2.983c.368 1.11 1.8 3.156 3.876 3.156 2.076 0 3.139-2.133 3.139-3.156V32.813h5.78v20.114c.094 2.774-1.445 8.323-8.235 8.323-6.244 0-8.84-3.71-9.26-5.34z" fill="#3E3E3E"/></svg>