<svg width="70" height="70" fill="none" xmlns="http://www.w3.org/2000/svg"><path fill-rule="evenodd" clip-rule="evenodd" d="M12.504 63.914L4.98 54.54a12.584 12.584 0 01-2.793-7.882V12.72c0-4.275 3.42-7.822 7.833-8.124l34.894-2.382c2.535-.173 5.055.5 7.137 1.909l12.26 8.289c2.194 1.483 3.501 3.909 3.501 6.497v38.585c0 4.184-3.363 7.648-7.683 7.914l-38.728 2.384c-3.448.212-6.78-1.24-8.897-3.878z" fill="#FAF9F7"/><path d="M31.015 1.159a158.757 158.757 0 014.367-.223l.733-.03C38.144.818 40.78.7 44.752.463l.042-.003c3.445-.21 6.318 1.012 8.138 2.36.76.563 1.417 1.06 1.959 1.477.315.244.648.486 1.5 1.077.56.388 1.318.91 2.412 1.662l2.052 1.412c1.157.797 2.61 1.786 4.2 2.862 2.364 1.54 4.134 4.554 4.094 7.598v.011c.004 2.792.01 5.44.005 7.451-.005 2.942-.03 5.78-.058 8.865-.025 2.826-.052 5.859-.068 9.368-.011 2.693-.113 5.31-.226 7.968l-.044 1.018a605.467 605.467 0 00-.16 3.904 8.664 8.664 0 01-.923 3.615c-1.61 3.126-4.583 4.724-7.507 4.927-1.212.084-2.422.173-3.67.264-1.593.118-3.247.24-5.04.361-2.838.194-6.92.44-11.018.688l-1.047.063h-.005c-3.751.226-7.433.448-10.133.625-4.291.281-5.903.421-7.248.538l-.555.047c-.335.028-.676.043-1.056.037-2.156.021-5.555-.948-7.884-3.42a6.802 6.802 0 01-.027-.027c-.387-.402-.575-.827-.465-.91.111-.083.465.189.832.57a10.787 10.787 0 004.003 2.618c.115-.085.511-.032.961.093.572.153 1.795.459 3.591.314 1.7-.145 3.921-.34 6.619-.578-.38.002-.698 0-.976-.003-.328-.003-.578-.008-.794-.012-.45-.008-.748-.014-1.277.001-.9.04-2.178.113-3.596.197a10.56 10.56 0 01-1.534-.021c-.498-.043-.875-.228-.847-.363.027-.136.427-.175.898-.135l.028.002c.478.04.958.045 1.424.017a299.67 299.67 0 013.732-.203 76 76 0 01.816-.033 15.021 15.021 0 01.576-.01h.002a2.542 2.542 0 01.354.038h.043c.198.005.4.008.617.01.852.01 2.2.004 5.001-.087 2.577-.083 6.927-.317 12.353-.65a516.482 516.482 0 00-3.887.141 1165.237 1165.237 0 00-3.97.16h-.002a3906.004 3906.004 0 01-2.203.089c-.749.03-1.484.06-2.332.081a21.203 21.203 0 01-.557 0l-.208-.002h-.026l-.213-.003-.197-.001h-.002a15.291 15.291 0 00-.726.014 58.1 58.1 0 00-.586.023l-.304.014-.309.015a2.628 2.628 0 01-.639-.039c-.17-.037-.268-.093-.27-.157-.003-.065.088-.133.255-.19.166-.056.394-.097.632-.114l.196-.014.117-.008.318-.022a77.601 77.601 0 01.999-.06 26.916 26.916 0 01.903-.03l.25-.002h.025l.204-.003a22.069 22.069 0 00.373-.01c.701-.034 1.568-.09 2.395-.142l.31-.02 1.625-.104 1.182-.075a1508.692 1508.692 0 012.82-.178c.941-.059 1.886-.116 2.831-.172a460.45 460.45 0 012.846-.157c.947-.05 1.931-.097 2.883-.136.699-.028 1.417-.046 2.08-.06l1.051-.02h.004a197.52 197.52 0 002.78-.063 156.23 156.23 0 004.587-.202 7.396 7.396 0 004.963-2.309 7.192 7.192 0 00.529-.63 7.06 7.06 0 00.769-1.305 6.874 6.874 0 00.611-2.882l-.007-1.95c-.001-.89 0-1.803.008-2.721.007-.82.016-1.645.026-2.452l.007-.64a222.965 222.965 0 00.008-5.868c-.01-.972-.027-1.957-.047-2.95-.02-.997-.042-1.982-.067-2.986-.025-.997-.051-1.998-.08-3.012a279.371 279.371 0 01-.074-3.43l-.012-.679-.018-.973c-.01-.54-.02-1.067-.033-1.579-.012-.512-.027-1.008-.045-1.488a75.503 75.503 0 00-.064-1.395c-.052-1.193-.068-1.931-.086-2.752a335.435 335.435 0 01-.058-3.437l-.002-.273a6.41 6.41 0 00-.39-2.116 6.585 6.585 0 00-1.203-2.043c-.38-.44-.817-.83-1.3-1.163a497.806 497.806 0 01-3.038-2.1 320.434 320.434 0 01-2.313-1.626 987.735 987.735 0 00-1.621-1.142c-.403-.281-.794-.552-1.178-.814a91.681 91.681 0 00-2.292-1.514 1046.635 1046.635 0 00-1.787-1.139 9.358 9.358 0 00-1.32-.695 9.592 9.592 0 00-2.735-.725 9.435 9.435 0 00-1.19-.056c-.351.005-.693.025-1.017.057-.355.034-.694.063-1.011.09-.665.056-1.287.105-1.891.152l-.34.026-1.44.112a366.382 366.382 0 00-3.437.288c-.57.051-1.116.102-1.704.158-.58.056-1.171.117-1.818.183a373.3 373.3 0 01-1.994.202 215.714 215.714 0 01-6.164.518c-.676.048-1.375.095-2.03.137a1532.792 1532.792 0 01-6.326.397 5253.43 5253.43 0 01-6.298.383l-.421.026c-.073.004-.144.01-.216.016a6.741 6.741 0 00-1.867.44A6.542 6.542 0 005.43 8.868a6.18 6.18 0 00-.886 1.445 5.8 5.8 0 00-.438 1.614 6.63 6.63 0 00-.048.792v.213a859.935 859.935 0 000 6.526l.003 1.287.006 2.014c.003 1.108.004 2.218.002 3.335a603.794 603.794 0 01-.046 6.697 1900.843 1900.843 0 01-.107 7.393 4304.34 4304.34 0 01-.107 6.474 10.85 10.85 0 00.285 2.694 11.196 11.196 0 002.23 4.109c.58.688 1.166 1.387 1.81 2.164.157.186.287.334.445.515.03.034.063.07.095.108.207.236.444.509.764.894.64.769 1.597 1.967 2.746 3.584.29.41.385.74.212.741-.121 0-.342-.163-.564-.401.363.477.724.954 1.084 1.43.144.189.26.382.32.537.061.155.062.258.003.287-.058.03-.173-.016-.319-.128a2.81 2.81 0 01-.46-.467l-1.182-1.485a823.013 823.013 0 00-3.557-4.433l-1.192-1.476-.719-.889-.261-.323-.017-.021a12.08 12.08 0 01-1.886-3.257 11.836 11.836 0 01-.792-4.183A10001.573 10001.573 0 002.79 36.44c-.006-.95-.014-1.89-.021-2.834l-.037-1.1c-.034-1.056-.08-2.113-.124-3.155.023 1.854.057 3.342.09 4.76l.013.567c.044 1.92.082 3.776.074 6.272a8609.93 8609.93 0 01-.02 5.71c.03 3.617 1.395 5.841 2.358 7.21.088.12.175.236.26.346 1.382 1.772 1.99 2.605 2.525 3.414.805 1.217 2.502 3.452 3.381 4.553.32.4.49.793.382.877-.11.085-.458-.17-.777-.57-.93-1.163-2.77-3.578-3.728-5.027-.395-.597-.87-1.258-2.173-2.933a13.48 13.48 0 01-.32-.427C3.7 52.698 2.3 50.41 2.265 46.66c.007-1.652.014-3.547.02-5.726.009-2.407-.027-4.192-.07-6.093l-.014-.563v-.004c-.04-1.746-.085-3.647-.104-6.21-.043-5.556-.123-12.916-.173-15.343a8.385 8.385 0 01.107-1.555c.316-1.373.621-3.66 4.185-5.896A8.872 8.872 0 019.154 4.24c.276-.055.554-.098.833-.127 1.362-.148 2.673-.287 3.838-.397 1.2-.114 2.304-.249 3.374-.387l.927-.12a176.04 176.04 0 012.222-.282c.58-.068 1.188-.144 1.83-.225 2.34-.293 5.142-.644 8.81-.897 3.886-.267 7.216-.466 10.089-.634a479.793 479.793 0 01-5.837.273c-1.669.07-2.882.122-4.18.212-6.2.43-8.523.63-11.138.932-.689.08-1.448.175-2.266.277-1.635.204-3.505.438-5.517.636-.697.069-1.425.143-2.178.222A9.355 9.355 0 005.836 5.16l-.003.002c-.397.256-.78.546-1.137.867-1.866 1.64-3.02 4.187-2.93 6.691L1.8 14l.028 1.06c.066 2.359.182 6.499.108 11.555a236.23 236.23 0 01-.09 3.58l-.038 1.253a392.732 392.732 0 00-.147 7.194c-.027 2.317-.04 5.103-.054 8.017a13.176 13.176 0 001.196 5.52 13.484 13.484 0 001.688 2.755c2.211 2.798 4.299 5.454 6.384 8.106l.001.002c.317.402.477.788.358.86-.12.072-.472-.195-.788-.597-2.077-2.643-4.152-5.281-6.346-8.057a13.98 13.98 0 01-1.767-2.893 13.678 13.678 0 01-1.226-5.696c.013-2.93.027-5.753.054-8.091.035-3.088.094-5.41.15-7.313.012-.459.025-.89.038-1.299.039-1.302.072-2.384.087-3.438.072-4.895-.04-8.878-.105-11.245L1.3 14.17c-.012-.481-.024-.965-.038-1.45-.088-2.534 1.024-5.132 2.882-6.871.363-.345.752-.66 1.161-.943l.003-.002A9.85 9.85 0 019.926 3.22c.678-.07 1.336-.138 1.97-.2 1.938-.19 3.625-.402 5.204-.6.847-.106 1.662-.208 2.468-.3 2.775-.32 5.227-.53 11.447-.961zM11.27 60.329c-.722-1-1.34-1.79-1.81-2.37a908.899 908.899 0 011.81 2.37zM9.381 4.713c-.194.036-.391.08-.584.129a8.66 8.66 0 011.228-.18l.417-.032 2.042-.152c-.847.056-1.673.112-2.46.166-.22.015-.433.038-.643.069zM31.03 2.305c-3.458.238-6.032.56-8.354.851-.668.084-1.317.165-1.958.24l-.8.099c1.567-.1 3.007-.19 4.186-.263 3.518-.22 5.522-.314 7.284-.397l1.498-.071a185.389 185.389 0 013.155-.322 287.148 287.148 0 013.76-.334c.584-.049 1.166-.096 1.73-.142l.097-.008c.595-.048 1.175-.095 1.707-.142a52.393 52.393 0 001.541-.153 11.604 11.604 0 013.041.06 11.755 11.755 0 012.288.587 12.242 12.242 0 00-3.15-.798 12.501 12.501 0 00-2.193-.06c-.915.055-1.872.11-2.881.17a980.19 980.19 0 00-10.951.683zm31.816 8.166L61.3 9.438l-.502-.335.012.009c.427.303.82.583 1.246.883a555.017 555.017 0 002.64 1.85 8.896 8.896 0 011.796 1.654 8.646 8.646 0 011.46 2.567 8.454 8.454 0 01.497 2.902l.003.875.016-.934a8.28 8.28 0 00-.07-1.203 8.47 8.47 0 00-.475-1.889 8.509 8.509 0 00-3.174-4.053c-.58-.4-1.216-.832-1.902-1.293zm5.743 16.663a177.604 177.604 0 01.023 2.37l.005 1.18.002.49.005.808c.014-1.876.026-3.71.03-5.62v-.076l-.065.848z" fill="#FAF9F7"/><path d="M24.605 29.703v-.444c0-1.126.902-2.06 2.065-2.138l8.469-.565L46.85 43.8V28.665l-3.014-.401v-.212c0-1.14.922-2.08 2.1-2.14l7.705-.394v1.108c0 .521-.387.966-.917 1.056l-1.855.314v24.512l-2.327.8c-1.944.669-4.108-.047-5.221-1.726L31.95 34.425V50.8l3.5.67-.05.325c-.152 1.016-1.03 1.785-2.092 1.833l-8.704.387c-.115-1.093.705-2.072 1.835-2.19l1.145-.12V29.87l-2.98-.168z" fill="#000"/><path fill-rule="evenodd" clip-rule="evenodd" d="M45.227 6.49L10.333 8.872c-2.09.143-3.71 1.823-3.71 3.848v33.94a8.39 8.39 0 001.861 5.254l7.524 9.373c1.216 1.515 3.13 2.35 5.111 2.227l38.728-2.384c1.985-.122 3.53-1.713 3.53-3.636V18.91c0-1.189-.6-2.303-1.608-2.985l-12.26-8.289a6.824 6.824 0 00-4.282-1.145zm-33.164 6.76c-.485-.36-.254-1.108.355-1.152l33.043-2.37a4.547 4.547 0 012.95.818l6.63 4.697c.252.178.134.563-.177.58L19.87 17.726a4.542 4.542 0 01-2.946-.877l-4.862-3.6zm6.167 10.442c0-1.137.918-2.076 2.093-2.14l36.996-2.014c1.145-.063 2.108.817 2.108 1.925v33.411c0 1.135-.915 2.073-2.087 2.14l-36.762 2.091c-1.274.073-2.348-.906-2.348-2.14V23.693z" fill="#000"/><path d="M24.605 29.703v-.444c0-1.126.902-2.06 2.065-2.138l8.469-.565L46.85 43.8V28.665l-3.014-.401v-.212c0-1.14.922-2.08 2.1-2.14l7.705-.394v1.108c0 .521-.387.966-.917 1.056l-1.855.314v24.512l-2.327.8c-1.944.669-4.108-.047-5.221-1.726L31.95 34.425V50.8l3.5.67-.05.325c-.152 1.016-1.03 1.785-2.092 1.833l-8.704.387c-.115-1.093.705-2.072 1.835-2.19l1.145-.12V29.87l-2.98-.168z" stroke="#000"/><path clip-rule="evenodd" d="M45.227 6.49L10.333 8.872c-2.09.143-3.71 1.823-3.71 3.848v33.94a8.39 8.39 0 001.861 5.254l7.524 9.373c1.216 1.515 3.13 2.35 5.111 2.227l38.728-2.384c1.985-.122 3.53-1.713 3.53-3.636V18.91c0-1.189-.6-2.303-1.608-2.985l-12.26-8.289a6.824 6.824 0 00-4.282-1.145zm-33.164 6.76c-.485-.36-.254-1.108.355-1.152l33.043-2.37a4.547 4.547 0 012.95.818l6.63 4.697c.252.178.134.563-.177.58L19.87 17.726a4.542 4.542 0 01-2.946-.877l-4.862-3.6zm6.167 10.442c0-1.137.918-2.076 2.093-2.14l36.996-2.014c1.145-.063 2.108.817 2.108 1.925v33.411c0 1.135-.915 2.073-2.087 2.14l-36.762 2.091c-1.274.073-2.348-.906-2.348-2.14V23.693z" stroke="#000"/></svg>