<svg width="70" height="70" fill="none" xmlns="http://www.w3.org/2000/svg"><g clip-path="url(#a)"><path d="M45.942 6.818c0-1.923-2.153-1.923-3.11-1.682 1.34-1.058 2.91-.802 3.468-.481l12.936 6.343a3.607 3.607 0 012.014 3.24v41.725a3.606 3.606 0 01-2.06 3.262l-12.172 5.756c-.837.36-2.655 1.25-4.186 0 1.914.36 2.95-1.002 3.11-1.923V6.818z" fill="url(#b)"/><path d="M42.987 5.1c1.015-.2 2.954-.107 2.954 1.718V21.18L6.723 50.85a1.669 1.669 0 01-2.234-.2L.447 46.277a1.688 1.688 0 01.1-2.388L42.831 5.136l.155-.035z" fill="url(#c)"/><path d="M45.941 48.936L6.723 19.267a1.669 1.669 0 00-2.234.2L.447 23.84a1.688 1.688 0 00.1 2.388L42.831 64.98c1.913.361 2.95-1 3.11-1.922V48.936z" fill="url(#d)"/></g><defs><linearGradient id="b" x1="52.041" y1="4.375" x2="52.041" y2="65.625" gradientUnits="userSpaceOnUse"><stop stop-color="#32B5F1"/><stop offset="1" stop-color="#2B9FED"/></linearGradient><linearGradient id="c" x1="45.941" y1="12.105" x2="2.235" y2="48.792" gradientUnits="userSpaceOnUse"><stop stop-color="#0F6FB3"/><stop offset=".271" stop-color="#1279B7"/><stop offset=".421" stop-color="#1176B5"/><stop offset=".618" stop-color="#0E69AC"/><stop offset=".855" stop-color="#0F70AF"/><stop offset="1" stop-color="#0F6DAD"/></linearGradient><linearGradient id="d" x1="2.527" y1="21.839" x2="46.111" y2="57.926" gradientUnits="userSpaceOnUse"><stop stop-color="#1791D2"/><stop offset="1" stop-color="#1173C5"/></linearGradient><clipPath id="a"><path fill="#fff" d="M0 0H70V70H0z"/></clipPath></defs></svg>