<svg width="65" height="65" fill="none" xmlns="http://www.w3.org/2000/svg"><g clip-path="url(#a)"><path d="M55.25 0H9.75C4.365 0 0 4.365 0 9.75v45.5C0 60.635 4.365 65 9.75 65h45.5c5.385 0 9.75-4.365 9.75-9.75V9.75C65 4.365 60.635 0 55.25 0z" fill="#00749A"/><path d="M32.5 56.621c13.322 0 24.121-10.8 24.121-24.121 0-13.322-10.8-24.121-24.121-24.121-13.322 0-24.121 10.8-24.121 24.121 0 13.322 10.8 24.121 24.121 24.121z" stroke="#FAF9F7" stroke-width="3"/><path d="M25.898 55.352l7.11-20.82 7.363 20.185 3.682-2.031 7.11-20.567c1.269-3.3 1.65-5.967 1.65-8.252.126-4.19-1.65-7.87-4.698-8.252-2.793-.254-4.316 2.412-4.19 4.063.255 3.808 4.063 5.967 4.063 11.172 0 3.808-2.412 9.775-4.062 15.488l-8.252-24.629c1.396-.127 2.666-.127 2.666-.127 1.27-.127 1.142-2.031-.127-1.904-4.19.38-7.998.254-12.188 0-1.27-.127-1.396 1.777-.127 1.904 0 0 1.143 0 2.413.127l3.554 9.775-5.078 15.108-8.252-24.883c1.397-.127 2.54-.127 2.54-.127 1.269-.127 1.142-2.031-.128-1.904-3.808.254-7.49.508-8.379-.127l-1.142 3.174 11.172 30.85 3.3 1.777z" fill="#FAF9F7"/></g><defs><clipPath id="a"><path fill="#fff" d="M0 0H65V65H0z"/></clipPath></defs></svg>